<?xml version="1.0" encoding="utf-8"?>
<!-- Generator: Adobe Illustrator 15.1.0, SVG Export Plug-In . SVG Version: 6.00 Build 0)  -->
<!DOCTYPE svg PUBLIC "-//W3C//DTD SVG 1.1//EN" "http://www.w3.org/Graphics/SVG/1.1/DTD/svg11.dtd">
<svg version="1.1" id="Camada_1" xmlns="http://www.w3.org/2000/svg" xmlns:xlink="http://www.w3.org/1999/xlink" x="0px" y="0px"
	 width="1080px" height="1080px" viewBox="0 0 1080 1080" enable-background="new 0 0 1080 1080" xml:space="preserve">
<g>
	<path fill="#354591" d="M1078.374,512.388c-11.149-164.249-80.181-283.331-170.999-368.156
		C818.322,61.058,684.607-9.528,511.521,0.759c-38.05,2.26-81.405,8.527-117.14,18.949
		C286.787,51.096,209.839,107.01,145.29,175.362C62.834,262.691-5.376,399.058,3.914,574.649
		c8.604,162.599,83.91,283.278,173.691,365.449c89.74,82.147,220.87,152.435,394.506,142.119
		c164.63-9.786,278.539-79.194,364.887-173.25C1019.494,819.11,1090.264,687.614,1078.374,512.388z M908.722,879.19
		c-80.423,88.655-184.422,150.864-335.264,162.422c-155.931,11.952-281.607-52.476-366.231-129.938
		c-87.963-80.52-151.084-184.957-161.573-337.024C34.398,411.361,95.93,288.002,172.219,203.786
		C229.079,141.01,305.382,88.372,402.46,60.313c34.684-10.016,69.624-16.297,107.716-18.949
		c164.306-11.451,285.122,56.929,367.578,131.291c84.639,76.352,149.738,188.072,160.227,338.379
		C1049.371,674.363,985.146,794.934,908.722,879.19z"/>
	<path fill="#FFC72C" d="M877.754,172.655C795.298,98.293,674.482,29.913,510.176,41.364c-38.092,2.652-73.032,8.933-107.716,18.949
		c-97.079,28.058-173.381,80.696-230.241,143.473C95.93,288.002,34.398,411.361,45.654,574.649
		c10.489,152.067,73.609,256.505,161.573,337.024c84.624,77.463,210.301,141.891,366.231,129.938
		c150.842-11.558,254.841-73.767,335.264-162.422c76.424-84.257,140.649-204.827,129.259-368.156
		C1027.492,360.727,962.393,249.007,877.754,172.655z M88.74,674.81c-3.609-12.6-11.835-32.442-9.425-43.313
		c1.562-7.024,29.352-29.505,35.007-35.192c13.303-13.371,24.856-23.998,33.661-36.544c-11.58,49.268-29.702,103.679-44.433,154.301
		C98.231,702.625,92.98,689.59,88.74,674.81z M111.629,737.071c16.091-52.854,29.784-101.918,45.78-155.653
		c4.941-16.607,8.051-35.843,14.811-51.435c4.537-10.463,14.393-19.355,21.543-29.778c20.209-29.465,41.121-63.98,57.897-96.099
		C220.247,533.15,178.992,664.023,145.29,795.272C130.453,779.504,123.451,755.858,111.629,737.071z M250.313,911.674
		c-24.976-14.615-50.276-40.578-68.668-66.321c23.131,2.017,47.771,2.504,72.708,2.707
		C253.531,869.798,250.568,889.384,250.313,911.674z M257.045,793.918c-12.98,0.489-28.141-1.218-39.047,1.354
		c11.565-57.416,31.453-118.16,44.433-178.664C264.639,674.323,259.751,736.638,257.045,793.918z M265.124,554.347
		c-3.191,20.384-11,40.904-16.157,60.908c-15.484,60.069-30.524,120.613-47.125,180.018c-15.74-0.933-27.346,2.289-43.086,1.354
		c35.573-129.815,72.102-258.684,107.715-388.458C263.494,457.151,272.273,508.706,265.124,554.347z M869.675,880.543
		c-49.751,51.477-121.865,96.941-201.965,119.11c-91.263,25.257-214.825,20.047-294.871-14.889
		c-3.042-36.653-4.161-75.229-6.732-112.343c-12.455-7.335-28.478-11.083-43.087-16.241c0,35.191,0,70.383,0,105.574
		c-7.216-3.124-13.262-7.418-20.196-10.828c0.902-32.931-1.791-69.476,1.346-100.16c191.693,5.808,382.229,12.793,572.237,20.303
		C879.463,876.578,871.804,878.339,869.675,880.543z M323.02,424.41c0,9.921,0,19.856,0,29.777
		c-6.557-0.623-15.766,1.421-20.196-1.353c0-9.475,0-18.95,0-28.424C309.556,424.41,316.288,424.41,323.02,424.41z M302.824,397.339
		c0-6.321,0-12.629,0-18.95c6.732,0,13.464,0,20.196,0c0,6.321,0,12.628,0,18.95C316.288,397.339,309.556,397.339,302.824,397.339z
		 M323.02,481.257c0,9.475,0,18.949,0,28.424c-6.732,0-13.464,0-20.196,0c0-9.476,0-18.95,0-28.424
		C309.556,481.257,316.288,481.257,323.02,481.257z M323.02,536.751c0,18.503,0,36.992,0,55.494
		c-6.557-0.622-15.766,1.422-20.196-1.354c0-18.042,0-36.098,0-54.141C309.556,536.751,316.288,536.751,323.02,536.751z
		 M323.02,617.962c0,18.948,0,37.898,0,56.848c-6.732,0-13.464,0-20.196,0c0-18.503,0-36.992,0-55.494
		C307.254,616.543,316.463,618.586,323.02,617.962z M323.02,701.88c0,29.776,0,59.555,0,89.332c-6.732,0-13.464,0-20.196,0
		c0-29.777,0-59.556,0-89.332C309.556,701.88,316.288,701.88,323.02,701.88z M826.589,773.616
		c-13.128,3.505-34.052-0.851-47.125,2.707c-14.649-32.646-25.502-69.108-40.394-101.514c18.057,4.412,38.226,18.423,57.897,25.716
		C806.164,725.566,817.124,748.835,826.589,773.616z M815.817,710.001c19.672,7.743,37.459,17.392,57.897,24.363
		c5.561,12.453,11.984,24.051,16.157,37.898c-17.354-0.756-32.327,0.894-48.472,1.354
		C833.846,751.434,823.627,731.929,815.817,710.001z M763.307,776.323c-17.665-0.608-31.722,2.41-49.818,1.353
		c-16.763-48.574-32.88-97.79-51.164-144.825c19.199,5.51,40.029,21.114,59.243,31.131
		C734.291,702.625,750.004,738.264,763.307,776.323z M698.678,779.03c-14.111,0.703-31.156-1.542-43.086,1.354
		c-22.056-63.56-42.022-129.206-64.629-192.198c17.287,5.63,35.33,22.236,53.857,31.13
		C661.745,673.578,682.534,723.97,698.678,779.03z M640.781,779.03c-13.29,3.345-30.552,2.68-47.127,2.707
		c-24.464-82.781-50.907-163.586-75.4-246.339c17.935,12.655,34.846,26.339,53.857,37.899
		C594.087,642.785,617.379,710.977,640.781,779.03z M578.844,783.091c-15.847-0.596-29.972,0.542-44.432,1.354
		c-29.11-103.826-60.455-205.408-90.211-308.601c18.485,14.807,35.938,30.657,55.205,44.666
		C524.501,609.436,554.03,693.893,578.844,783.091z M520.948,783.091c-14.503,3.019-32.234,2.789-49.819,2.706
		c-36.111-128.38-71.146-257.83-107.715-385.751c-0.377-2.423,1.266-2.774,1.346-1.354c10.408,8.608,18.46,20.14,29.622,31.131
		c9.978,9.813,25.097,18.245,30.968,29.778c5.25,10.313,8.065,26.921,12.118,40.604
		C464.383,591.163,492.752,694.882,520.948,783.091z M456.318,787.15c-14.675-0.311-28.691,0.044-41.739,1.354
		c-15.201-56.467-30.497-113.979-45.779-173.25c-4.834-18.745-12.644-38.643-14.811-56.848c-5.978-50.147,0.391-98.834-4.04-154.301
		C386.155,531.04,421.795,658.527,456.318,787.15z M399.768,788.505c-13.545-0.989-22.93,2.221-36.354,1.354
		c-3.69-53.139-4.875-108.795-6.732-163.775C372.367,678.896,385.023,734.758,399.768,788.505z M862.943,833.17
		c-163.741-5.153-336.125-4.355-498.183-9.474c0-0.906,0-1.801,0-2.707c-0.215-1.57,0.296-2.408,1.347-2.707
		c184.852,0.962,368.883,2.749,554.733,2.707C913.422,843.092,882.845,833.795,862.943,833.17z M904.683,770.908
		c-2.854-9.77-7.716-17.513-10.771-27.069c21.193,7.118,40.191,16.446,61.937,23.01
		C943.581,773.021,922.349,770.167,904.683,770.908z M972.005,735.718C721.998,650.013,505.8,530.322,348.603,351.319
		c-0.525-17.975-2.074-34.92-1.346-54.141c-5.225-4.683-15.283-4.48-22.89-6.768c-3.124,7.688-0.457,21.196-1.347,31.131
		c-6.732,0-13.464,0-20.196,0c0-10.828,0-21.656,0-32.484c-8.146,0.393-13.639,3.438-21.543,4.061
		c-7.661,4.237,0.713,7.146-2.693,13.536c-2.922,5.481-10.179,3.396-12.118,9.474c-3.069,9.65,3.286,21.71,1.347,32.484
		c-3.339,18.557-31.372,53.884-41.74,70.383c-43.666,69.517-88.367,137.287-150.801,185.431
		c-17.558-164.6,34.199-287.337,110.408-374.923c75.481-86.76,181.446-151.54,331.224-161.068
		c92.057-5.847,186.416,23.172,247.746,55.494c65.625,34.582,116.776,82.821,158.879,140.766
		c39.572,54.452,74.109,129.708,84.827,215.209C1019.67,570.074,1004.723,659.082,972.005,735.718z"/>
	<path fill="#1D428A" d="M923.532,264.694c-42.103-57.944-93.254-106.184-158.879-140.766
		c-61.33-32.322-155.689-61.341-247.746-55.494c-149.778,9.529-255.742,74.308-331.224,161.068
		C109.475,317.089,57.718,439.826,75.275,604.426c62.435-48.144,107.136-115.914,150.801-185.431
		c10.368-16.499,38.401-51.826,41.74-70.383c1.939-10.774-4.416-22.834-1.347-32.484c1.939-6.078,9.196-3.993,12.118-9.474
		c3.406-6.389-4.968-9.299,2.693-13.536c7.904-0.623,13.397-3.668,21.543-4.061c0,10.828,0,21.657,0,32.484
		c6.732,0,13.464,0,20.196,0c0.89-9.935-1.777-23.442,1.347-31.131c7.607,2.288,17.666,2.084,22.89,6.768
		c-0.728,19.22,0.821,36.166,1.346,54.141C505.8,530.322,721.998,650.013,972.005,735.718
		c32.718-76.636,47.665-165.644,36.354-255.814C997.642,394.402,963.104,319.146,923.532,264.694z"/>
	<path fill="#354591" d="M904.683,770.908c17.666-0.741,38.898,2.113,51.165-4.06c-21.745-6.563-40.743-15.892-61.937-23.01
		C896.967,753.396,901.828,761.139,904.683,770.908z"/>
	<path fill="#354591" d="M364.76,820.989c0,0.906,0,1.801,0,2.707c162.058,5.118,334.442,4.32,498.183,9.474
		c19.901,0.625,50.479,9.922,57.896-12.181c-185.85,0.042-369.881-1.745-554.733-2.707
		C365.057,818.581,364.545,819.419,364.76,820.989z"/>
	<path fill="#354591" d="M889.872,772.263c-4.173-13.848-10.597-25.445-16.157-37.898c-20.438-6.972-38.226-16.62-57.897-24.363
		c7.81,21.928,18.028,41.433,25.583,63.615C857.545,773.156,872.518,771.507,889.872,772.263z"/>
	<path fill="#354591" d="M304.17,850.767c-3.137,30.685-0.444,67.229-1.346,100.16c6.934,3.41,12.98,7.704,20.196,10.828
		c0-35.191,0-70.383,0-105.574c14.609,5.158,30.632,8.906,43.087,16.241c2.571,37.114,3.689,75.689,6.732,112.343
		c80.046,34.936,203.608,40.146,294.871,14.889c80.1-22.169,152.214-67.634,201.965-119.11c2.129-2.204,9.788-3.965,6.732-9.474
		C686.398,863.56,495.863,856.574,304.17,850.767z"/>
	<path fill="#354591" d="M739.07,674.81c14.892,32.405,25.744,68.868,40.394,101.514c13.073-3.558,33.997,0.798,47.125-2.707
		c-9.465-24.781-20.425-48.05-29.621-73.091C777.296,693.232,757.127,679.222,739.07,674.81z"/>
	<path fill="#354591" d="M662.324,632.851c18.284,47.035,34.401,96.251,51.164,144.825c18.097,1.058,32.153-1.961,49.818-1.353
		c-13.303-38.06-29.016-73.698-41.739-112.342C702.354,653.965,681.523,638.36,662.324,632.851z"/>
	<path fill="#354591" d="M590.963,588.186c22.606,62.992,42.573,128.639,64.629,192.198c11.93-2.896,28.975-0.65,43.086-1.354
		c-16.144-55.061-36.933-105.452-53.857-159.715C626.293,610.422,608.25,593.815,590.963,588.186z"/>
	<path fill="#354591" d="M518.254,535.398c24.493,82.753,50.937,163.558,75.4,246.339c16.575-0.027,33.837,0.638,47.127-2.707
		c-23.402-68.054-46.694-136.245-68.67-205.733C553.1,561.737,536.189,548.053,518.254,535.398z"/>
	<path fill="#354591" d="M444.2,475.843c29.756,103.193,61.101,204.775,90.211,308.601c14.46-0.812,28.585-1.949,44.432-1.354
		c-24.813-89.198-54.342-173.655-79.439-262.582C480.138,506.5,462.686,490.65,444.2,475.843z"/>
	<path fill="#354591" d="M425.35,459.601c-5.871-11.533-20.991-19.965-30.968-29.778c-11.162-10.991-19.214-22.522-29.622-31.131
		c-0.081-1.421-1.723-1.069-1.346,1.354c36.569,127.921,71.604,257.371,107.715,385.751c17.584,0.083,35.316,0.313,49.819-2.706
		c-28.196-88.209-56.565-191.928-83.48-282.885C433.415,486.522,430.6,469.915,425.35,459.601z"/>
	<path fill="#354591" d="M353.989,558.407c2.167,18.205,9.977,38.103,14.811,56.848c15.282,59.271,30.578,116.783,45.779,173.25
		c13.048-1.311,27.064-1.665,41.739-1.354c-34.522-128.623-70.163-256.111-106.369-383.044
		C354.379,459.573,348.011,508.26,353.989,558.407z"/>
	<path fill="#354591" d="M363.414,789.858c13.424,0.867,22.809-2.343,36.354-1.354c-14.744-53.747-27.4-109.608-43.086-162.422
		C358.539,681.063,359.724,736.72,363.414,789.858z"/>
	<path fill="#354591" d="M302.824,791.212c6.732,0,13.464,0,20.196,0c0-29.777,0-59.556,0-89.332c-6.732,0-13.464,0-20.196,0
		C302.824,731.656,302.824,761.435,302.824,791.212z"/>
	<path fill="#354591" d="M302.824,674.81c6.732,0,13.464,0,20.196,0c0-18.949,0-37.899,0-56.848
		c-6.557,0.624-15.766-1.419-20.196,1.354C302.824,637.817,302.824,656.307,302.824,674.81z"/>
	<path fill="#354591" d="M302.824,590.892c4.43,2.775,13.639,0.731,20.196,1.354c0-18.502,0-36.991,0-55.494
		c-6.732,0-13.464,0-20.196,0C302.824,554.794,302.824,572.85,302.824,590.892z"/>
	<path fill="#354591" d="M302.824,509.681c6.732,0,13.464,0,20.196,0c0-9.476,0-18.95,0-28.424c-6.732,0-13.464,0-20.196,0
		C302.824,490.731,302.824,500.206,302.824,509.681z"/>
	<path fill="#354591" d="M302.824,452.833c4.43,2.774,13.639,0.73,20.196,1.353c0-9.921,0-19.856,0-29.777
		c-6.732,0-13.464,0-20.196,0C302.824,433.884,302.824,443.358,302.824,452.833z"/>
	<path fill="#354591" d="M323.02,378.39c-6.732,0-13.464,0-20.196,0c0,6.321,0,12.628,0,18.95c6.732,0,13.464,0,20.196,0
		C323.02,391.018,323.02,384.71,323.02,378.39z"/>
	<path fill="#354591" d="M266.47,408.167c-35.614,129.775-72.142,258.643-107.715,388.458c15.74,0.936,27.346-2.286,43.086-1.354
		c16.602-59.404,31.642-119.948,47.125-180.018c5.157-20.004,12.966-40.524,16.157-60.908
		C272.273,508.706,263.494,457.151,266.47,408.167z"/>
	<path fill="#354591" d="M217.998,795.272c10.906-2.572,26.067-0.865,39.047-1.354c2.706-57.28,7.594-119.595,5.386-177.31
		C249.451,677.112,229.563,737.856,217.998,795.272z"/>
	<path fill="#354591" d="M250.313,911.674c0.256-22.29,3.218-41.876,4.04-63.614c-24.937-0.203-49.576-0.69-72.708-2.707
		C200.037,871.096,225.337,897.059,250.313,911.674z"/>
	<path fill="#354591" d="M193.762,500.206c-7.15,10.423-17.006,19.315-21.543,29.778c-6.759,15.592-9.87,34.827-14.811,51.435
		c-15.996,53.735-29.689,102.8-45.78,155.653c11.822,18.787,18.824,42.433,33.661,58.201
		c33.702-131.249,74.957-262.122,106.369-391.166C234.883,436.226,213.972,470.74,193.762,500.206z"/>
	<path fill="#354591" d="M114.322,596.305c-5.655,5.688-33.445,28.168-35.007,35.192c-2.41,10.87,5.816,30.713,9.425,43.313
		c4.241,14.78,9.492,27.815,14.811,39.252c14.73-50.622,32.853-105.033,44.433-154.301
		C139.178,572.307,127.625,582.934,114.322,596.305z"/>
</g>
<path fill="#FFFFFF" stroke="#000000" stroke-miterlimit="10" d="M201.179,503.836"/>
</svg>
